<svg width="15" height="15" viewBox="0 0 15 15" fill="none" xmlns="http://www.w3.org/2000/svg">
<g id="weui:location-filled">
<path id="Vector" fill-rule="evenodd" clip-rule="evenodd" d="M7.0951 13.766C7.0951 13.766 2.58459 9.96723 2.58459 6.22939C2.58459 4.91156 3.1081 3.6477 4.03995 2.71585C4.9718 1.784 6.23565 1.2605 7.55348 1.2605C8.87132 1.2605 10.1352 1.784 11.067 2.71585C11.9989 3.6477 12.5224 4.91156 12.5224 6.22939C12.5224 9.96723 8.01186 13.766 8.01186 13.766C7.76093 13.997 7.3479 13.9945 7.0951 13.766ZM7.55348 8.40328C7.83896 8.40328 8.12165 8.34705 8.38539 8.2378C8.64914 8.12855 8.88879 7.96842 9.09065 7.76656C9.29252 7.56469 9.45265 7.32505 9.56189 7.0613C9.67114 6.79755 9.72737 6.51487 9.72737 6.22939C9.72737 5.94391 9.67114 5.66122 9.56189 5.39748C9.45265 5.13373 9.29252 4.89408 9.09065 4.69222C8.88879 4.49035 8.64914 4.33022 8.38539 4.22098C8.12165 4.11173 7.83896 4.0555 7.55348 4.0555C6.97693 4.0555 6.424 4.28453 6.01631 4.69222C5.60863 5.0999 5.37959 5.65284 5.37959 6.22939C5.37959 6.80594 5.60863 7.35888 6.01631 7.76656C6.424 8.17424 6.97693 8.40328 7.55348 8.40328Z" fill="white" fill-opacity="0.8"/>
</g>
</svg>
